<svg xmlns="http://www.w3.org/2000/svg" xmlns:xlink="http://www.w3.org/1999/xlink" version="1.1" style="shape-rendering:geometricPrecision; text-rendering:geometricPrecision; image-rendering:optimizeQuality; fill-rule:evenodd; clip-rule:evenodd" viewBox="-0.5 -0.5 523 493">
<g><path style="opacity:0.989" fill="#54fff4" d="M 170.5,-0.5 C 234.167,-0.5 297.833,-0.5 361.5,-0.5C 374.816,8.82104 385.816,20.4877 394.5,34.5C 305.169,35.6667 215.835,35.8333 126.5,35C 135.908,23.5899 146.575,13.5899 158.5,5C 162.475,2.85371 166.475,1.02038 170.5,-0.5 Z"/></g>
<g><path style="opacity:0.985" fill="#4dc9ff" d="M 92.5,65.5 C 195.547,65.0129 298.547,66.1796 401.5,69C 408.058,70.9456 414.058,73.9456 419.5,78C 440.185,96.1859 456.518,117.686 468.5,142.5C 398.388,189.079 327.055,233.912 254.5,277C 246.04,278.765 238.373,277.099 231.5,272C 214.167,254.853 200.667,235.019 191,212.5C 188.224,206.615 185.724,200.615 183.5,194.5C 217.292,171.761 251.959,150.261 287.5,130C 296.031,128.012 304.697,127.179 313.5,127.5C 327.612,127.454 341.612,128.62 355.5,131C 315.663,154.086 275.663,176.92 235.5,199.5C 234.417,200.365 234.251,201.365 235,202.5C 238.829,210.163 243.163,217.496 248,224.5C 250.795,227.818 254.295,229.318 258.5,229C 310.334,197.584 362,165.918 413.5,134C 406.57,125.066 398.903,116.733 390.5,109C 386.328,105.501 381.662,102.834 376.5,101C 285.83,100.941 195.164,101.607 104.5,103C 88.1424,107.351 74.3091,115.851 63,128.5C 43.8498,150.109 28.1832,174.109 16,200.5C 7.60136,184.905 3.60136,168.238 4,150.5C 4.53393,146.232 5.86726,142.232 8,138.5C 17.7536,123.992 27.7536,109.659 38,95.5C 45.6818,85.1466 55.1818,76.98 66.5,71C 75.078,68.0526 83.7446,66.2193 92.5,65.5 Z"/></g>
<g><path style="opacity:0.99" fill="#54fff4" d="M -0.5,321.5 C -0.5,313.167 -0.5,304.833 -0.5,296.5C 4.84348,272.324 13.6768,249.324 26,227.5C 44.3724,196.082 65.2057,166.416 88.5,138.5C 89.9122,137.194 91.5789,136.36 93.5,136C 98.1232,135.042 102.79,134.375 107.5,134C 124.258,133.03 140.925,133.363 157.5,135C 128.452,167.946 101.952,202.78 78,239.5C 65.053,259.062 55.053,280.062 48,302.5C 46.1078,308.177 46.1078,313.843 48,319.5C 63.957,359.915 83.457,398.415 106.5,435C 88.3041,433.035 70.6374,428.701 53.5,422C 50.7513,420.877 48.2513,419.377 46,417.5C 32.5681,393.639 19.9014,369.305 8,344.5C 4.04395,337.12 1.21062,329.453 -0.5,321.5 Z"/></g>
<g><path style="opacity:0.993" fill="#54fff4" d="M 522.5,243.5 C 522.5,244.167 522.5,244.833 522.5,245.5C 505.209,288.081 484.709,329.081 461,368.5C 449.7,386.47 436.2,402.637 420.5,417C 411.737,424.048 401.737,427.715 390.5,428C 334.475,430.017 278.475,429.684 222.5,427C 211.239,414.306 201.073,400.806 192,386.5C 190.991,384.975 190.491,383.308 190.5,381.5C 252.559,381.989 314.559,381.489 376.5,380C 381.997,377.755 386.997,374.755 391.5,371C 397.667,364.833 403.833,358.667 410,352.5C 425.803,331.063 441.97,309.897 458.5,289C 449.171,287.044 439.838,287.044 430.5,289C 427.215,289.759 424.215,291.092 421.5,293C 408.554,309.948 396.387,327.448 385,345.5C 381.664,348.169 377.831,349.669 373.5,350C 361.106,352.031 348.773,351.865 336.5,349.5C 349.742,320.654 366.242,293.988 386,269.5C 407.709,243.367 435.543,232.534 469.5,237C 487.328,237.937 504.995,240.104 522.5,243.5 Z"/></g>
<g><path style="opacity:0.988" fill="#4dc9ff" d="M 247.5,492.5 C 234.167,492.5 220.833,492.5 207.5,492.5C 185.841,487.574 167.674,476.574 153,459.5C 135.649,438.803 120.649,416.47 108,392.5C 96.0631,369.962 85.2298,346.962 75.5,323.5C 80.5179,304.466 88.5179,286.799 99.5,270.5C 115.736,306.972 133.569,342.639 153,377.5C 163.771,395.377 175.771,412.377 189,428.5C 198.912,440.706 211.745,446.872 227.5,447C 266.943,448.122 306.276,447.122 345.5,444C 334.998,459.178 322.998,473.178 309.5,486C 307.833,487 306.167,488 304.5,489C 285.414,490.804 266.414,491.971 247.5,492.5 Z"/></g>
</svg>